<?xml version="1.0" encoding="UTF-8" standalone="no"?>
<!DOCTYPE svg PUBLIC "-//W3C//DTD SVG 1.1//EN"
 "http://www.w3.org/Graphics/SVG/1.1/DTD/svg11.dtd">
<!-- Generated by graphviz version 2.40.1 (20161225.0304)
 -->
<!-- Title: state transitions Pages: 1 -->
<svg width="2051pt" height="458pt"
 viewBox="0.00 0.00 2051.00 458.00" xmlns="http://www.w3.org/2000/svg" xmlns:xlink="http://www.w3.org/1999/xlink">
<g id="graph0" class="graph" transform="scale(1 1) rotate(0) translate(4 454)">
<title>state transitions</title>
<polygon fill="#ffffff" stroke="transparent" points="-4,4 -4,-454 2047,-454 2047,4 -4,4"/>
<g id="clust1" class="cluster state regular">
<title>cluster_state_next</title>
<path fill="none" stroke="#000000" stroke-width="2" d="M20,-8C20,-8 2023,-8 2023,-8 2029,-8 2035,-14 2035,-20 2035,-20 2035,-430 2035,-430 2035,-436 2029,-442 2023,-442 2023,-442 20,-442 20,-442 14,-442 8,-436 8,-430 8,-430 8,-20 8,-20 8,-14 14,-8 20,-8"/>
<text text-anchor="start" x="994.3208" y="-423.2" font-family="Helvetica,sans-Serif" font-size="12.00" fill="#000000">state_next</text>
</g>
<!-- state_next -->
<!-- STATE_LOCK_INIT -->
<g id="node2" class="node state regular">
<title>STATE_LOCK_INIT</title>
<polygon fill="#ffffff" fill-opacity="0.003922" stroke="transparent" stroke-width="2" points="788.5,-404 659.5,-404 659.5,-368 788.5,-368 788.5,-404"/>
<text text-anchor="start" x="670.827" y="-382.2" font-family="Helvetica,sans-Serif" font-size="12.00" fill="#000000">STATE_LOCK_INIT</text>
<path fill="none" stroke="#000000" stroke-width="2" d="M671.8333,-369C671.8333,-369 776.1667,-369 776.1667,-369 781.8333,-369 787.5,-374.6667 787.5,-380.3333 787.5,-380.3333 787.5,-391.6667 787.5,-391.6667 787.5,-397.3333 781.8333,-403 776.1667,-403 776.1667,-403 671.8333,-403 671.8333,-403 666.1667,-403 660.5,-397.3333 660.5,-391.6667 660.5,-391.6667 660.5,-380.3333 660.5,-380.3333 660.5,-374.6667 666.1667,-369 671.8333,-369"/>
</g>
<!-- STATE_RESET_CNT -->
<g id="node3" class="node state regular">
<title>STATE_RESET_CNT</title>
<polygon fill="#ffffff" fill-opacity="0.003922" stroke="transparent" stroke-width="2" points="793,-322 655,-322 655,-286 793,-286 793,-322"/>
<text text-anchor="start" x="665.665" y="-300.2" font-family="Helvetica,sans-Serif" font-size="12.00" fill="#000000">STATE_RESET_CNT</text>
<path fill="none" stroke="#000000" stroke-width="2" d="M667.3333,-287C667.3333,-287 780.6667,-287 780.6667,-287 786.3333,-287 792,-292.6667 792,-298.3333 792,-298.3333 792,-309.6667 792,-309.6667 792,-315.3333 786.3333,-321 780.6667,-321 780.6667,-321 667.3333,-321 667.3333,-321 661.6667,-321 656,-315.3333 656,-309.6667 656,-309.6667 656,-298.3333 656,-298.3333 656,-292.6667 661.6667,-287 667.3333,-287"/>
</g>
<!-- STATE_LOCK_INIT&#45;&gt;STATE_RESET_CNT -->
<g id="edge1" class="edge transition">
<title>STATE_LOCK_INIT&#45;&gt;STATE_RESET_CNT</title>
<path fill="none" stroke="#000000" d="M724,-367.8015C724,-357.3976 724,-344.1215 724,-332.3768"/>
<polygon fill="#000000" stroke="#000000" points="727.5001,-332.1476 724,-322.1476 720.5001,-332.1476 727.5001,-332.1476"/>
<text text-anchor="middle" x="725.3895" y="-342" font-family="Helvetica,sans-Serif" font-size="10.00" fill="#000000"> </text>
</g>
<!-- STATE_TEST_SH -->
<g id="node4" class="node state regular">
<title>STATE_TEST_SH</title>
<polygon fill="#ffffff" fill-opacity="0.003922" stroke="transparent" stroke-width="2" points="784.5,-240 663.5,-240 663.5,-204 784.5,-204 784.5,-240"/>
<text text-anchor="start" x="674.8278" y="-218.2" font-family="Helvetica,sans-Serif" font-size="12.00" fill="#000000">STATE_TEST_SH</text>
<path fill="none" stroke="#000000" stroke-width="2" d="M675.8333,-205C675.8333,-205 772.1667,-205 772.1667,-205 777.8333,-205 783.5,-210.6667 783.5,-216.3333 783.5,-216.3333 783.5,-227.6667 783.5,-227.6667 783.5,-233.3333 777.8333,-239 772.1667,-239 772.1667,-239 675.8333,-239 675.8333,-239 670.1667,-239 664.5,-233.3333 664.5,-227.6667 664.5,-227.6667 664.5,-216.3333 664.5,-216.3333 664.5,-210.6667 670.1667,-205 675.8333,-205"/>
</g>
<!-- STATE_RESET_CNT&#45;&gt;STATE_TEST_SH -->
<g id="edge2" class="edge transition">
<title>STATE_RESET_CNT&#45;&gt;STATE_TEST_SH</title>
<path fill="none" stroke="#000000" d="M724,-285.8015C724,-275.3976 724,-262.1215 724,-250.3768"/>
<polygon fill="#000000" stroke="#000000" points="727.5001,-250.1476 724,-240.1476 720.5001,-250.1476 727.5001,-250.1476"/>
<text text-anchor="middle" x="725.3895" y="-260" font-family="Helvetica,sans-Serif" font-size="10.00" fill="#000000"> </text>
</g>
<!-- STATE_VALID_SH -->
<g id="node5" class="node state regular">
<title>STATE_VALID_SH</title>
<polygon fill="#ffffff" fill-opacity="0.003922" stroke="transparent" stroke-width="2" points="186.5,-146 61.5,-146 61.5,-110 186.5,-110 186.5,-146"/>
<text text-anchor="start" x="72.8244" y="-124.2" font-family="Helvetica,sans-Serif" font-size="12.00" fill="#000000">STATE_VALID_SH</text>
<path fill="none" stroke="#000000" stroke-width="2" d="M73.8333,-111C73.8333,-111 174.1667,-111 174.1667,-111 179.8333,-111 185.5,-116.6667 185.5,-122.3333 185.5,-122.3333 185.5,-133.6667 185.5,-133.6667 185.5,-139.3333 179.8333,-145 174.1667,-145 174.1667,-145 73.8333,-145 73.8333,-145 68.1667,-145 62.5,-139.3333 62.5,-133.6667 62.5,-133.6667 62.5,-122.3333 62.5,-122.3333 62.5,-116.6667 68.1667,-111 73.8333,-111"/>
</g>
<!-- STATE_TEST_SH&#45;&gt;STATE_VALID_SH -->
<g id="edge3" class="edge transition">
<title>STATE_TEST_SH&#45;&gt;STATE_VALID_SH</title>
<path fill="none" stroke="#000000" d="M663.2724,-213.8488C627.1351,-208.1541 580.651,-199.3424 540.508,-187 514.8174,-179.1011 511.026,-169.7114 485,-163 432.3076,-149.4121 286.2113,-138.218 196.8535,-132.379"/>
<polygon fill="#000000" stroke="#000000" points="196.9885,-128.8805 186.7835,-131.728 196.5368,-135.866 196.9885,-128.8805"/>
<text text-anchor="start" x="540" y="-178" font-family="Helvetica,sans-Serif" font-size="10.00" fill="#000000">i_serdes_rx[FRAME_WIDTH &#45; slip &#45; 1] != i_serdes_rx[FRAME_WIDTH &#45; slip &#45;2] &#160;&#160;</text>
<text text-anchor="start" x="540" y="-166" font-family="Helvetica,sans-Serif" font-size="10.00" fill="#000000">slip &lt; FRAME_WIDTH &#45; 1 &#160;&#160;</text>
</g>
<!-- STATE_TEST_SH&#45;&gt;STATE_VALID_SH -->
<g id="edge5" class="edge transition">
<title>STATE_TEST_SH&#45;&gt;STATE_VALID_SH</title>
<path fill="none" stroke="#000000" d="M663.1982,-221.2332C549.9379,-219.2188 311.0272,-212.0479 232.475,-187 212.9129,-180.7623 210.9412,-172.9849 193,-163 185.5764,-158.8685 177.6091,-154.642 169.8199,-150.6197"/>
<polygon fill="#000000" stroke="#000000" points="171.2983,-147.4447 160.8011,-146.0095 168.1122,-153.6776 171.2983,-147.4447"/>
<text text-anchor="start" x="232" y="-172" font-family="Helvetica,sans-Serif" font-size="10.00" fill="#000000">serdes_rx_prev[0] != i_serdes_rx[FRAME_WIDTH &#45; 1] &#160;&#160;</text>
</g>
<!-- STATE_INVALID_SH -->
<g id="node6" class="node state regular">
<title>STATE_INVALID_SH</title>
<polygon fill="#ffffff" fill-opacity="0.003922" stroke="transparent" stroke-width="2" points="1643.5,-146 1506.5,-146 1506.5,-110 1643.5,-110 1643.5,-146"/>
<text text-anchor="start" x="1517.8256" y="-124.2" font-family="Helvetica,sans-Serif" font-size="12.00" fill="#000000">STATE_INVALID_SH</text>
<path fill="none" stroke="#000000" stroke-width="2" d="M1518.8333,-111C1518.8333,-111 1631.1667,-111 1631.1667,-111 1636.8333,-111 1642.5,-116.6667 1642.5,-122.3333 1642.5,-122.3333 1642.5,-133.6667 1642.5,-133.6667 1642.5,-139.3333 1636.8333,-145 1631.1667,-145 1631.1667,-145 1518.8333,-145 1518.8333,-145 1513.1667,-145 1507.5,-139.3333 1507.5,-133.6667 1507.5,-133.6667 1507.5,-122.3333 1507.5,-122.3333 1507.5,-116.6667 1513.1667,-111 1518.8333,-111"/>
</g>
<!-- STATE_TEST_SH&#45;&gt;STATE_INVALID_SH -->
<g id="edge4" class="edge transition">
<title>STATE_TEST_SH&#45;&gt;STATE_INVALID_SH</title>
<path fill="none" stroke="#000000" d="M784.5086,-220.8918C967.319,-217.3464 1503.4366,-205.4245 1536,-187 1548.3956,-179.9865 1557.565,-167.2162 1563.8869,-155.3456"/>
<polygon fill="#000000" stroke="#000000" points="1567.1345,-156.6702 1568.3537,-146.1458 1560.8375,-153.6128 1567.1345,-156.6702"/>
<text text-anchor="start" x="1559" y="-178" font-family="Helvetica,sans-Serif" font-size="10.00" fill="#000000">not (i_serdes_rx[FRAME_WIDTH &#45; slip &#45; 1] != i_serdes_rx[FRAME_WIDTH &#45; slip &#45;2]) &#160;&#160;</text>
<text text-anchor="start" x="1559" y="-166" font-family="Helvetica,sans-Serif" font-size="10.00" fill="#000000">slip &lt; FRAME_WIDTH &#45; 1 &#160;&#160;</text>
</g>
<!-- STATE_TEST_SH&#45;&gt;STATE_INVALID_SH -->
<g id="edge6" class="edge transition">
<title>STATE_TEST_SH&#45;&gt;STATE_INVALID_SH</title>
<path fill="none" stroke="#000000" d="M784.7998,-214.5814C819.0545,-209.2377 862.2162,-200.533 899,-187 919.5917,-179.4242 921.0633,-169.0944 942.141,-163 994.0217,-147.9992 1338.4951,-135.423 1496.3,-130.3742"/>
<polygon fill="#000000" stroke="#000000" points="1496.5355,-133.8686 1506.4193,-130.0526 1496.3131,-126.8721 1496.5355,-133.8686"/>
<text text-anchor="start" x="942" y="-178" font-family="Helvetica,sans-Serif" font-size="10.00" fill="#000000">not (slip &lt; FRAME_WIDTH &#45; 1) &#160;&#160;</text>
<text text-anchor="start" x="942" y="-166" font-family="Helvetica,sans-Serif" font-size="10.00" fill="#000000">not (serdes_rx_prev[0] != i_serdes_rx[FRAME_WIDTH &#45; 1]) &#160;&#160;</text>
</g>
<!-- STATE_VALID_SH&#45;&gt;STATE_RESET_CNT -->
<g id="edge9" class="edge transition">
<title>STATE_VALID_SH&#45;&gt;STATE_RESET_CNT</title>
<path fill="none" stroke="#000000" d="M106.4429,-146.2059C96.5794,-158.6646 88.06,-175.0301 98,-187 166.6589,-269.6802 492.0509,-294.2583 644.6509,-301.299"/>
<polygon fill="#000000" stroke="#000000" points="644.7445,-304.8066 654.8909,-301.7571 645.0574,-297.8136 644.7445,-304.8066"/>
<text text-anchor="start" x="193" y="-225" font-family="Helvetica,sans-Serif" font-size="10.00" fill="#000000">not (sh_count &lt; &#39;d63) &#160;&#160;</text>
<text text-anchor="start" x="193" y="-213" font-family="Helvetica,sans-Serif" font-size="10.00" fill="#000000">not (sh_count == &#39;d63 &amp;&amp; sh_invalid_count == &#39;d0) &#160;&#160;</text>
</g>
<!-- STATE_VALID_SH&#45;&gt;STATE_TEST_SH -->
<g id="edge7" class="edge transition">
<title>STATE_VALID_SH&#45;&gt;STATE_TEST_SH</title>
<path fill="none" stroke="#000000" d="M111.5155,-146.1774C104.3054,-159.1129 98.5037,-176.0705 108.806,-187 113.4282,-191.9036 492.1902,-210.7849 653.0314,-218.5917"/>
<polygon fill="#000000" stroke="#000000" points="653.1466,-222.1013 663.3043,-219.0896 653.4855,-215.1095 653.1466,-222.1013"/>
<text text-anchor="start" x="108" y="-172" font-family="Helvetica,sans-Serif" font-size="10.00" fill="#000000">sh_count &lt; &#39;d63 &#160;&#160;</text>
</g>
<!-- STATE_64_GOOD -->
<g id="node8" class="node state regular">
<title>STATE_64_GOOD</title>
<polygon fill="#ffffff" fill-opacity="0.003922" stroke="transparent" stroke-width="2" points="153,-52 29,-52 29,-16 153,-16 153,-52"/>
<text text-anchor="start" x="39.9898" y="-30.2" font-family="Helvetica,sans-Serif" font-size="12.00" fill="#000000">STATE_64_GOOD</text>
<path fill="none" stroke="#000000" stroke-width="2" d="M41.3333,-17C41.3333,-17 140.6667,-17 140.6667,-17 146.3333,-17 152,-22.6667 152,-28.3333 152,-28.3333 152,-39.6667 152,-39.6667 152,-45.3333 146.3333,-51 140.6667,-51 140.6667,-51 41.3333,-51 41.3333,-51 35.6667,-51 30,-45.3333 30,-39.6667 30,-39.6667 30,-28.3333 30,-28.3333 30,-22.6667 35.6667,-17 41.3333,-17"/>
</g>
<!-- STATE_VALID_SH&#45;&gt;STATE_64_GOOD -->
<g id="edge8" class="edge transition">
<title>STATE_VALID_SH&#45;&gt;STATE_64_GOOD</title>
<path fill="none" stroke="#000000" d="M117.6373,-109.8759C112.8437,-96.2215 106.1865,-77.2585 100.7266,-61.7061"/>
<polygon fill="#000000" stroke="#000000" points="103.9581,-60.3446 97.3432,-52.0685 97.3533,-62.6633 103.9581,-60.3446"/>
<text text-anchor="start" x="111" y="-78" font-family="Helvetica,sans-Serif" font-size="10.00" fill="#000000">sh_count == &#39;d63 &amp;&amp; sh_invalid_count == &#39;d0 &#160;&#160;</text>
</g>
<!-- STATE_INVALID_SH&#45;&gt;STATE_RESET_CNT -->
<g id="edge11" class="edge transition">
<title>STATE_INVALID_SH&#45;&gt;STATE_RESET_CNT</title>
<path fill="none" stroke="#000000" d="M1643.6697,-129.6013C1745.0925,-132.686 1925.1611,-141.1958 1945,-163 1952.1785,-170.8896 1952.2515,-179.1774 1945,-187 1928.0293,-205.3073 1745.842,-201.8097 1720.975,-204 1379.011,-234.1205 971.8208,-277.2274 803.1773,-295.4"/>
<polygon fill="#000000" stroke="#000000" points="802.7101,-291.93 793.1431,-296.4821 803.4608,-298.8896 802.7101,-291.93"/>
<text text-anchor="start" x="1720" y="-219" font-family="Helvetica,sans-Serif" font-size="10.00" fill="#000000">sh_count == &#39;d63 &amp;&amp; sh_invalid_count &lt; &#39;d15 &amp;&amp; rx_block_lock_r &#160;&#160;</text>
</g>
<!-- STATE_INVALID_SH&#45;&gt;STATE_TEST_SH -->
<g id="edge10" class="edge transition">
<title>STATE_INVALID_SH&#45;&gt;STATE_TEST_SH</title>
<path fill="none" stroke="#000000" d="M1506.311,-130.0637C1422.3686,-133.4644 1285.8231,-142.0927 1239.814,-163 1225.552,-169.4809 1228.3661,-180.7534 1214,-187 1176.6287,-203.2495 921.9354,-214.7445 795.2514,-219.5268"/>
<polygon fill="#000000" stroke="#000000" points="794.7407,-216.0434 784.8783,-219.9142 795.002,-223.0385 794.7407,-216.0434"/>
<text text-anchor="start" x="1239" y="-172" font-family="Helvetica,sans-Serif" font-size="10.00" fill="#000000">sh_count &lt; &#39;d63 &amp;&amp; sh_invalid_count &lt; &#39;d15 &amp;&amp; rx_block_lock_r &#160;&#160;</text>
</g>
<!-- STATE_SLIP -->
<g id="node7" class="node state regular">
<title>STATE_SLIP</title>
<polygon fill="#ffffff" fill-opacity="0.003922" stroke="transparent" stroke-width="2" points="1851.5,-52 1758.5,-52 1758.5,-16 1851.5,-16 1851.5,-52"/>
<text text-anchor="start" x="1769.824" y="-30.2" font-family="Helvetica,sans-Serif" font-size="12.00" fill="#000000">STATE_SLIP</text>
<path fill="none" stroke="#000000" stroke-width="2" d="M1770.8333,-17C1770.8333,-17 1839.1667,-17 1839.1667,-17 1844.8333,-17 1850.5,-22.6667 1850.5,-28.3333 1850.5,-28.3333 1850.5,-39.6667 1850.5,-39.6667 1850.5,-45.3333 1844.8333,-51 1839.1667,-51 1839.1667,-51 1770.8333,-51 1770.8333,-51 1765.1667,-51 1759.5,-45.3333 1759.5,-39.6667 1759.5,-39.6667 1759.5,-28.3333 1759.5,-28.3333 1759.5,-22.6667 1765.1667,-17 1770.8333,-17"/>
</g>
<!-- STATE_INVALID_SH&#45;&gt;STATE_SLIP -->
<g id="edge12" class="edge transition">
<title>STATE_INVALID_SH&#45;&gt;STATE_SLIP</title>
<path fill="none" stroke="#000000" d="M1609.3369,-109.9608C1633.6259,-97.5784 1667.1631,-81.2359 1697.641,-69 1713.9897,-62.4366 1732.0895,-56.1683 1748.6966,-50.7967"/>
<polygon fill="#000000" stroke="#000000" points="1749.8132,-54.1144 1758.2776,-47.7422 1747.6869,-47.4451 1749.8132,-54.1144"/>
<text text-anchor="start" x="1697" y="-84" font-family="Helvetica,sans-Serif" font-size="10.00" fill="#000000">not (sh_count &lt; &#39;d63 &amp;&amp; sh_invalid_count &lt; &#39;d15 &amp;&amp; rx_block_lock_r) &#160;&#160;</text>
<text text-anchor="start" x="1697" y="-72" font-family="Helvetica,sans-Serif" font-size="10.00" fill="#000000">not (sh_count == &#39;d63 &amp;&amp; sh_invalid_count &lt; &#39;d15 &amp;&amp; rx_block_lock_r) &#160;&#160;</text>
</g>
<!-- STATE_SLIP&#45;&gt;STATE_RESET_CNT -->
<g id="edge13" class="edge transition">
<title>STATE_SLIP&#45;&gt;STATE_RESET_CNT</title>
<path fill="none" stroke="#000000" d="M1851.7599,-36.4105C1906.7506,-40.126 1993.7518,-49.0356 2019,-69 2023.5321,-72.5837 2024,-75.2222 2024,-81 2024,-263 2024,-263 2024,-263 2024,-293.6868 1086.1486,-301.8233 803.6057,-303.5782"/>
<polygon fill="#000000" stroke="#000000" points="803.4124,-300.0793 793.434,-303.6404 803.4553,-307.0791 803.4124,-300.0793"/>
<text text-anchor="middle" x="2025.3895" y="-172" font-family="Helvetica,sans-Serif" font-size="10.00" fill="#000000"> </text>
</g>
<!-- STATE_64_GOOD&#45;&gt;STATE_RESET_CNT -->
<g id="edge14" class="edge transition">
<title>STATE_64_GOOD&#45;&gt;STATE_RESET_CNT</title>
<path fill="none" stroke="#000000" d="M55.0613,-52.0648C45.6092,-59.4338 38,-69.0707 38,-81 38,-263 38,-263 38,-263 38,-293.0824 463.8886,-301.2133 644.5276,-303.3091"/>
<polygon fill="#000000" stroke="#000000" points="644.7266,-306.8114 654.7654,-303.4244 644.8055,-299.8119 644.7266,-306.8114"/>
<text text-anchor="middle" x="39.3895" y="-172" font-family="Helvetica,sans-Serif" font-size="10.00" fill="#000000"> </text>
</g>
</g>
</svg>
